<svg xmlns="http://www.w3.org/2000/svg" class="diagram-root" style="background: #f5f6f6" xmlns:xlink="http://www.w3.org/1999/xlink"><style>.diagram-root { font-family: "Helvetica Neue", sans-serif; font-size: 12px; } .t { overflow: visible; } .t-bg { y: 40; fill: #fff;   } .th { fill: #005aa0;   } .tht { fill: #fff; font-size: 14px;  } .tf { fill: #323c46; overflow: visible; } .tf.pk { fill: #005aa0; font-weight: bold; } .tf.fk { font-weight: bold; } .ty { fill: #adb1b5; font-weight: normal; text-anchor: end; } .r { fill: transparent; stroke: #c3c3c3; stroke-width: 1; } .l { stroke: 1; } .i { fill: #c2c7ce; stroke: #c2c7ce; } .i.ix { fill: #afb3b6; stroke: #000; } .fa { fill: transparent; overflow: visible; } .fa .bg.hover { fill: #f7f7f7; } .c { cy: 12; r: 4; stroke: #d2d2dc; fill: #d2d2dc; } .hr { fill: transparent; stroke: #323c46; stroke-opacity: 0.035; stroke-width: 13; } .dc { stroke: #fa5a3c; fill: #fa5a3c; } .x { stroke: white; stroke-width: 1; } .hl .th { fill: #1b9bff; } .hl .tht {  } .fhl .bg { fill: #e7f4ff; } .fhls .bg {  } .r.hl { stroke: #1b9bff; } .dim { opacity: 0.25; }</style><g class="drawing-wrapper" transform="translate(15 1) scale(1)"><g class="rs"><path class="r" id="h133153459" d="M 55 217 m -1 0 a 1 1 0 1 0 2 0 a 1 1 0 1 0 -2 0 M 55 217 m -0.5 0 a 0.5 0.5 0 1 0 1 0 a 0.5 0.5 0 1 0 -1 0 M 55 217 L 55 217 L 43 217 M 49 223 L 49 223 L 49 211 M 43 217 C -7 217 -15.4 431 57 431 M 69 431 m -1 0 a 1 1 0 1 0 2 0 a 1 1 0 1 0 -2 0 M 69 431 m -0.5 0 a 0.5 0.5 0 1 0 1 0 a 0.5 0.5 0 1 0 -1 0 M 69 431 L 69 431 L 57 431 M 63 437 L 63 437 L 63 425"/><path class="r" id="h3892048477" d="M 419.64 339 m -1 0 a 1 1 0 1 0 2 0 a 1 1 0 1 0 -2 0 M 419.64 339 m -0.5 0 a 0.5 0.5 0 1 0 1 0 a 0.5 0.5 0 1 0 -1 0 M 419.64 339 L 419.64 339 L 431.64 339 M 419.64 345 m -1 0 a 1 1 0 1 0 2 0 a 1 1 0 1 0 -2 0 M 419.64 345 m -0.5 0 a 0.5 0.5 0 1 0 1 0 a 0.5 0.5 0 1 0 -1 0 M 419.64 345 L 419.64 345 L 426.64 339 L 419.64 333 M 419.64 333 m -1 0 a 1 1 0 1 0 2 0 a 1 1 0 1 0 -2 0 M 419.64 333 m -0.5 0 a 0.5 0.5 0 1 0 1 0 a 0.5 0.5 0 1 0 -1 0 M 431.64 339 C 481.64 339 610.004 192 217.7 192 M 205.7 192 m -1 0 a 1 1 0 1 0 2 0 a 1 1 0 1 0 -2 0 M 205.7 192 m -0.5 0 a 0.5 0.5 0 1 0 1 0 a 0.5 0.5 0 1 0 -1 0 M 205.7 192 L 205.7 192 L 217.7 192 M 211.7 198 L 211.7 198 L 211.7 186"/><path class="r" id="h3737276011" d="M 419.64 364 m -1 0 a 1 1 0 1 0 2 0 a 1 1 0 1 0 -2 0 M 419.64 364 m -0.5 0 a 0.5 0.5 0 1 0 1 0 a 0.5 0.5 0 1 0 -1 0 M 419.64 364 L 419.64 364 L 431.64 364 M 419.64 370 m -1 0 a 1 1 0 1 0 2 0 a 1 1 0 1 0 -2 0 M 419.64 370 m -0.5 0 a 0.5 0.5 0 1 0 1 0 a 0.5 0.5 0 1 0 -1 0 M 419.64 370 L 419.64 370 L 426.64 364 L 419.64 358 M 419.64 358 m -1 0 a 1 1 0 1 0 2 0 a 1 1 0 1 0 -2 0 M 419.64 358 m -0.5 0 a 0.5 0.5 0 1 0 1 0 a 0.5 0.5 0 1 0 -1 0 M 431.64 364 Q 447.48 364 463.32 270.5 T 495 177 M 507 177 m -1 0 a 1 1 0 1 0 2 0 a 1 1 0 1 0 -2 0 M 507 177 m -0.5 0 a 0.5 0.5 0 1 0 1 0 a 0.5 0.5 0 1 0 -1 0 M 507 177 L 507 177 L 495 177 M 501 183 L 501 183 L 501 171"/><path class="r" id="h1248694035" d="M 370.02 83 m -1 0 a 1 1 0 1 0 2 0 a 1 1 0 1 0 -2 0 M 370.02 83 m -0.5 0 a 0.5 0.5 0 1 0 1 0 a 0.5 0.5 0 1 0 -1 0 M 370.02 83 L 370.02 83 L 382.02 83 M 370.02 89 m -1 0 a 1 1 0 1 0 2 0 a 1 1 0 1 0 -2 0 M 370.02 89 m -0.5 0 a 0.5 0.5 0 1 0 1 0 a 0.5 0.5 0 1 0 -1 0 M 370.02 89 L 370.02 89 L 377.02 83 L 370.02 77 M 370.02 77 m -1 0 a 1 1 0 1 0 2 0 a 1 1 0 1 0 -2 0 M 370.02 77 m -0.5 0 a 0.5 0.5 0 1 0 1 0 a 0.5 0.5 0 1 0 -1 0 M 382.02 83 Q 410.27 83 438.51 130 T 495 177 M 507 177 m -1 0 a 1 1 0 1 0 2 0 a 1 1 0 1 0 -2 0 M 507 177 m -0.5 0 a 0.5 0.5 0 1 0 1 0 a 0.5 0.5 0 1 0 -1 0 M 507 177 L 507 177 L 495 177 M 501 183 L 501 183 L 501 171"/><path class="r" id="h1130742295" d="M 370.02 108 m -1 0 a 1 1 0 1 0 2 0 a 1 1 0 1 0 -2 0 M 370.02 108 m -0.5 0 a 0.5 0.5 0 1 0 1 0 a 0.5 0.5 0 1 0 -1 0 M 370.02 108 L 370.02 108 L 382.02 108 M 370.02 114 m -1 0 a 1 1 0 1 0 2 0 a 1 1 0 1 0 -2 0 M 370.02 114 m -0.5 0 a 0.5 0.5 0 1 0 1 0 a 0.5 0.5 0 1 0 -1 0 M 370.02 114 L 370.02 114 L 377.02 108 L 370.02 102 M 370.02 102 m -1 0 a 1 1 0 1 0 2 0 a 1 1 0 1 0 -2 0 M 370.02 102 m -0.5 0 a 0.5 0.5 0 1 0 1 0 a 0.5 0.5 0 1 0 -1 0 M 382.02 108 C 432.02 108 530.612 192 217.7 192 M 205.7 192 m -1 0 a 1 1 0 1 0 2 0 a 1 1 0 1 0 -2 0 M 205.7 192 m -0.5 0 a 0.5 0.5 0 1 0 1 0 a 0.5 0.5 0 1 0 -1 0 M 205.7 192 L 205.7 192 L 217.7 192 M 211.7 198 L 211.7 198 L 211.7 186"/><path class="r" id="h221257298" d="M 44 554 m -1 0 a 1 1 0 1 0 2 0 a 1 1 0 1 0 -2 0 M 44 554 m -0.5 0 a 0.5 0.5 0 1 0 1 0 a 0.5 0.5 0 1 0 -1 0 M 44 554 L 44 554 L 32 554 M 38 560 L 38 560 L 38 548 M 32 554 C -18 554 -24.6 192 43 192 M 55 192 m -1 0 a 1 1 0 1 0 2 0 a 1 1 0 1 0 -2 0 M 55 192 m -0.5 0 a 0.5 0.5 0 1 0 1 0 a 0.5 0.5 0 1 0 -1 0 M 55 192 L 55 192 L 43 192 M 49 198 L 49 198 L 49 186"/></g><g class="hrs"/><g class="ts"><svg class="t" id="h3708248841" x="507" y="120" width="146.03" height="100"><rect class="th" width="146.03" height="40"/><text class="tht" x="13" y="25">Departments</text><rect class="t-bg" y="40" width="146.03" height="60"/><text class="tf pk" x="13" y="61">dept_no<tspan class="ty" x="133.03">int</tspan></text><path class="i pk" transform="translate(100.36 48) scale(0.65)" d="M 7 14 A 2 2 0 0 1 5 12 A 2 2 0 0 1 7 10 A 2 2 0 0 1 9 12 A 2 2 0 0 1 7 14 M 12.65 10 C 11.83 7.67 9.61 6 7 6 A 6 6 0 0 0 1 12 A 6 6 0 0 0 7 18 C 9.61 18 11.83 16.33 12.65 14 H 17 V 18 H 21 V 14 H 23 V 10 H 12.65 Z"/><text class="tf" x="13" y="86">dept_name<tspan class="ty" x="133.03">varchar</tspan></text></svg><svg class="t" id="h3299212598" x="55" y="135" width="150.7" height="225"><rect class="th" width="150.7" height="40"/><text class="tht" x="13" y="25">Employees</text><rect class="t-bg" y="40" width="150.7" height="185"/><text class="tf pk" x="13" y="61">emp_no<tspan class="ty" x="137.7">int</tspan></text><path class="i pk" transform="translate(105.03 48) scale(0.65)" d="M 7 14 A 2 2 0 0 1 5 12 A 2 2 0 0 1 7 10 A 2 2 0 0 1 9 12 A 2 2 0 0 1 7 14 M 12.65 10 C 11.83 7.67 9.61 6 7 6 A 6 6 0 0 0 1 12 A 6 6 0 0 0 7 18 C 9.61 18 11.83 16.33 12.65 14 H 17 V 18 H 21 V 14 H 23 V 10 H 12.65 Z"/><text class="tf fk" x="13" y="86">emp_title_id<tspan class="ty" x="137.7">varchar</tspan></text><text class="tf" x="13" y="111">birth_date<tspan class="ty" x="137.7">datetime</tspan></text><text class="tf" x="13" y="136">first_name<tspan class="ty" x="137.7">varchar</tspan></text><text class="tf" x="13" y="161">last_name<tspan class="ty" x="137.7">varchar</tspan></text><text class="tf" x="13" y="186">sex<tspan class="ty" x="137.7">char</tspan></text><text class="tf" x="13" y="211">hire_date<tspan class="ty" x="137.7">datetime</tspan></text></svg><svg class="t" id="h1000793988" x="287" y="282" width="132.64" height="100"><rect class="th" width="132.64" height="40"/><text class="tht" x="13" y="25">Dept_Employees</text><rect class="t-bg" y="40" width="132.64" height="60"/><text class="tf pk" x="13" y="61">emp_no<tspan class="ty" x="119.64">int</tspan></text><path class="i pk" transform="translate(86.97 48) scale(0.65)" d="M 7 14 A 2 2 0 0 1 5 12 A 2 2 0 0 1 7 10 A 2 2 0 0 1 9 12 A 2 2 0 0 1 7 14 M 12.65 10 C 11.83 7.67 9.61 6 7 6 A 6 6 0 0 0 1 12 A 6 6 0 0 0 7 18 C 9.61 18 11.83 16.33 12.65 14 H 17 V 18 H 21 V 14 H 23 V 10 H 12.65 Z"/><text class="tf pk" x="13" y="86">dept_no<tspan class="ty" x="119.64">int</tspan></text><path class="i pk" transform="translate(86.97 73) scale(0.65)" d="M 7 14 A 2 2 0 0 1 5 12 A 2 2 0 0 1 7 10 A 2 2 0 0 1 9 12 A 2 2 0 0 1 7 14 M 12.65 10 C 11.83 7.67 9.61 6 7 6 A 6 6 0 0 0 1 12 A 6 6 0 0 0 7 18 C 9.61 18 11.83 16.33 12.65 14 H 17 V 18 H 21 V 14 H 23 V 10 H 12.65 Z"/></svg><svg class="t" id="h754932316" x="248" y="26" width="122.02" height="100"><rect class="th" width="122.02" height="40"/><text class="tht" x="13" y="25">Dept_Manager</text><rect class="t-bg" y="40" width="122.02" height="60"/><text class="tf pk" x="13" y="61">dept_no<tspan class="ty" x="109.02">int</tspan></text><path class="i pk" transform="translate(76.35 48) scale(0.65)" d="M 7 14 A 2 2 0 0 1 5 12 A 2 2 0 0 1 7 10 A 2 2 0 0 1 9 12 A 2 2 0 0 1 7 14 M 12.65 10 C 11.83 7.67 9.61 6 7 6 A 6 6 0 0 0 1 12 A 6 6 0 0 0 7 18 C 9.61 18 11.83 16.33 12.65 14 H 17 V 18 H 21 V 14 H 23 V 10 H 12.65 Z"/><text class="tf pk" x="13" y="86">emp_no<tspan class="ty" x="109.02">int</tspan></text><path class="i pk" transform="translate(76.35 73) scale(0.65)" d="M 7 14 A 2 2 0 0 1 5 12 A 2 2 0 0 1 7 10 A 2 2 0 0 1 9 12 A 2 2 0 0 1 7 14 M 12.65 10 C 11.83 7.67 9.61 6 7 6 A 6 6 0 0 0 1 12 A 6 6 0 0 0 7 18 C 9.61 18 11.83 16.33 12.65 14 H 17 V 18 H 21 V 14 H 23 V 10 H 12.65 Z"/></svg><svg class="t" id="h3858243705" x="44" y="497" width="122.02" height="100"><rect class="th" width="122.02" height="40"/><text class="tht" x="13" y="25">Salaries</text><rect class="t-bg" y="40" width="122.02" height="60"/><text class="tf pk" x="13" y="61">emp_no<tspan class="ty" x="109.02">int</tspan></text><path class="i pk" transform="translate(76.35 48) scale(0.65)" d="M 7 14 A 2 2 0 0 1 5 12 A 2 2 0 0 1 7 10 A 2 2 0 0 1 9 12 A 2 2 0 0 1 7 14 M 12.65 10 C 11.83 7.67 9.61 6 7 6 A 6 6 0 0 0 1 12 A 6 6 0 0 0 7 18 C 9.61 18 11.83 16.33 12.65 14 H 17 V 18 H 21 V 14 H 23 V 10 H 12.65 Z"/><text class="tf" x="13" y="86">salary<tspan class="ty" x="109.02">int</tspan></text></svg><svg class="t" id="h3517680912" x="69" y="374" width="113.35" height="100"><rect class="th" width="113.35" height="40"/><text class="tht" x="13" y="25">Titles</text><rect class="t-bg" y="40" width="113.35" height="60"/><text class="tf pk" x="13" y="61">title_id<tspan class="ty" x="100.35">int</tspan></text><path class="i pk" transform="translate(67.68 48) scale(0.65)" d="M 7 14 A 2 2 0 0 1 5 12 A 2 2 0 0 1 7 10 A 2 2 0 0 1 9 12 A 2 2 0 0 1 7 14 M 12.65 10 C 11.83 7.67 9.61 6 7 6 A 6 6 0 0 0 1 12 A 6 6 0 0 0 7 18 C 9.61 18 11.83 16.33 12.65 14 H 17 V 18 H 21 V 14 H 23 V 10 H 12.65 Z"/><text class="tf" x="13" y="86">title<tspan class="ty" x="100.35">varchar</tspan></text></svg></g></g></svg>